<mxfile>
    <diagram id="nfXsdyuwX5pM_Nen0s3v" name="Page-1">
        <mxGraphModel dx="1469" dy="688" grid="1" gridSize="10" guides="1" tooltips="1" connect="1" arrows="1" fold="1" page="1" pageScale="1" pageWidth="827" pageHeight="1169" math="0" shadow="0">
            <root>
                <mxCell id="0"/>
                <mxCell id="1" parent="0"/>
                <mxCell id="2" value="&lt;font style=&quot;font-size: 18px&quot;&gt;&lt;b&gt;Usuario/Cliente&lt;/b&gt;&lt;/font&gt;" style="shape=umlActor;verticalLabelPosition=bottom;verticalAlign=top;html=1;outlineConnect=0;" parent="1" vertex="1">
                    <mxGeometry x="40" y="260" width="70" height="170" as="geometry"/>
                </mxCell>
                <mxCell id="6" value="&lt;b&gt;Registro&lt;/b&gt;" style="ellipse;whiteSpace=wrap;html=1;" parent="1" vertex="1">
                    <mxGeometry x="110" y="10" width="90" height="60" as="geometry"/>
                </mxCell>
                <mxCell id="7" value="&lt;b&gt;Inicia sesion&lt;/b&gt;" style="ellipse;whiteSpace=wrap;html=1;" parent="1" vertex="1">
                    <mxGeometry x="210" y="30" width="90" height="70" as="geometry"/>
                </mxCell>
                <mxCell id="8" value="&lt;b&gt;Catalogo de cursos&lt;/b&gt;" style="ellipse;whiteSpace=wrap;html=1;" parent="1" vertex="1">
                    <mxGeometry x="170" y="290" width="100" height="80" as="geometry"/>
                </mxCell>
                <mxCell id="9" value="&lt;b&gt;Perfil de usuario&lt;/b&gt;" style="ellipse;whiteSpace=wrap;html=1;" parent="1" vertex="1">
                    <mxGeometry x="188" y="400" width="100" height="80" as="geometry"/>
                </mxCell>
                <mxCell id="10" value="&lt;b&gt;Comprar curso&lt;span style=&quot;color: rgba(0 , 0 , 0 , 0) ; font-family: monospace ; font-size: 0px&quot;&gt;%3CmxGraphModel%3E%3Croot%3E%3CmxCell%20id%3D%220%22%2F%3E%3CmxCell%20id%3D%221%22%20parent%3D%220%22%2F%3E%3CmxCell%20id%3D%222%22%20value%3D%22Catalogo%20de%20cursos%22%20style%3D%22ellipse%3BwhiteSpace%3Dwrap%3Bhtml%3D1%3B%22%20vertex%3D%221%22%20parent%3D%221%22%3E%3CmxGeometry%20x%3D%22170%22%20y%3D%22290%22%20width%3D%22120%22%20height%3D%2280%22%20as%3D%22geometry%22%2F%3E%3C%2FmxCell%3E%3C%2Froot%3E%3C%2FmxGraphModel%3E&lt;/span&gt;&lt;/b&gt;" style="ellipse;whiteSpace=wrap;html=1;" parent="1" vertex="1">
                    <mxGeometry x="160" y="190" width="90" height="70" as="geometry"/>
                </mxCell>
                <mxCell id="11" value="&lt;b&gt;Los mejores cursos&lt;/b&gt;" style="ellipse;whiteSpace=wrap;html=1;" parent="1" vertex="1">
                    <mxGeometry x="388" y="340" width="100" height="80" as="geometry"/>
                </mxCell>
                <mxCell id="12" value="&lt;b&gt;Cursos destacados&lt;/b&gt;" style="ellipse;whiteSpace=wrap;html=1;" parent="1" vertex="1">
                    <mxGeometry x="370" y="260" width="100" height="70" as="geometry"/>
                </mxCell>
                <mxCell id="13" value="&lt;b&gt;Cursos recomendados&lt;/b&gt;" style="ellipse;whiteSpace=wrap;html=1;" parent="1" vertex="1">
                    <mxGeometry x="340" y="180" width="106" height="70" as="geometry"/>
                </mxCell>
                <mxCell id="14" value="&lt;b&gt;Autorizar pago&lt;/b&gt;" style="ellipse;whiteSpace=wrap;html=1;" parent="1" vertex="1">
                    <mxGeometry x="288" y="90" width="120" height="80" as="geometry"/>
                </mxCell>
                <mxCell id="17" value="" style="endArrow=none;html=1;exitX=0.5;exitY=0;exitDx=0;exitDy=0;exitPerimeter=0;" parent="1" source="2" target="6" edge="1">
                    <mxGeometry width="50" height="50" relative="1" as="geometry">
                        <mxPoint x="430" y="360" as="sourcePoint"/>
                        <mxPoint x="480" y="310" as="targetPoint"/>
                    </mxGeometry>
                </mxCell>
                <mxCell id="18" value="" style="endArrow=none;html=1;exitX=0.5;exitY=0;exitDx=0;exitDy=0;exitPerimeter=0;entryX=0;entryY=1;entryDx=0;entryDy=0;" parent="1" target="7" edge="1" source="2">
                    <mxGeometry width="50" height="50" relative="1" as="geometry">
                        <mxPoint x="85" y="270" as="sourcePoint"/>
                        <mxPoint x="156.72723752465663" y="88.74431137799172" as="targetPoint"/>
                    </mxGeometry>
                </mxCell>
                <mxCell id="19" value="" style="endArrow=none;html=1;entryX=0;entryY=0.5;entryDx=0;entryDy=0;" parent="1" target="10" edge="1">
                    <mxGeometry width="50" height="50" relative="1" as="geometry">
                        <mxPoint x="80" y="330" as="sourcePoint"/>
                        <mxPoint x="166.72723752465663" y="98.74431137799172" as="targetPoint"/>
                        <Array as="points">
                            <mxPoint x="80" y="310"/>
                        </Array>
                    </mxGeometry>
                </mxCell>
                <mxCell id="20" value="" style="endArrow=none;html=1;entryX=-0.033;entryY=0.375;entryDx=0;entryDy=0;entryPerimeter=0;exitX=0.5;exitY=0.5;exitDx=0;exitDy=0;exitPerimeter=0;" parent="1" source="2" target="8" edge="1">
                    <mxGeometry width="50" height="50" relative="1" as="geometry">
                        <mxPoint x="75" y="290" as="sourcePoint"/>
                        <mxPoint x="176.72723752465663" y="108.74431137799172" as="targetPoint"/>
                        <Array as="points">
                            <mxPoint x="75" y="320"/>
                        </Array>
                    </mxGeometry>
                </mxCell>
                <mxCell id="21" value="" style="endArrow=none;html=1;entryX=0;entryY=0.25;entryDx=0;entryDy=0;entryPerimeter=0;" parent="1" target="9" edge="1">
                    <mxGeometry width="50" height="50" relative="1" as="geometry">
                        <mxPoint x="75" y="310" as="sourcePoint"/>
                        <mxPoint x="149.99723752465664" y="230.0043113779917" as="targetPoint"/>
                        <Array as="points">
                            <mxPoint x="75" y="310"/>
                        </Array>
                    </mxGeometry>
                </mxCell>
                <mxCell id="26" value="Extender" style="html=1;verticalAlign=bottom;endArrow=open;dashed=1;endSize=8;" edge="1" parent="1" source="14" target="10">
                    <mxGeometry x="0.0464" y="-2" relative="1" as="geometry">
                        <mxPoint x="350" y="250" as="sourcePoint"/>
                        <mxPoint x="270" y="250" as="targetPoint"/>
                        <Array as="points"/>
                        <mxPoint y="1" as="offset"/>
                    </mxGeometry>
                </mxCell>
                <mxCell id="27" value="Incluir" style="endArrow=block;dashed=1;endFill=0;endSize=12;html=1;exitX=1;exitY=0;exitDx=0;exitDy=0;entryX=0;entryY=1;entryDx=0;entryDy=0;" edge="1" parent="1" source="8" target="13">
                    <mxGeometry width="160" relative="1" as="geometry">
                        <mxPoint x="260" y="410" as="sourcePoint"/>
                        <mxPoint x="380" y="320" as="targetPoint"/>
                        <Array as="points"/>
                    </mxGeometry>
                </mxCell>
                <mxCell id="28" value="Incluir" style="endArrow=block;dashed=1;endFill=0;endSize=12;html=1;" edge="1" parent="1" source="8" target="12">
                    <mxGeometry width="160" relative="1" as="geometry">
                        <mxPoint x="260" y="490" as="sourcePoint"/>
                        <mxPoint x="370.01" y="399.99" as="targetPoint"/>
                    </mxGeometry>
                </mxCell>
                <mxCell id="29" value="Incluir" style="endArrow=block;dashed=1;endFill=0;endSize=12;html=1;entryX=0;entryY=0.5;entryDx=0;entryDy=0;exitX=0.94;exitY=0.8;exitDx=0;exitDy=0;exitPerimeter=0;" edge="1" parent="1" source="8" target="11">
                    <mxGeometry width="160" relative="1" as="geometry">
                        <mxPoint x="260" y="480.01" as="sourcePoint"/>
                        <mxPoint x="370.01" y="390" as="targetPoint"/>
                    </mxGeometry>
                </mxCell>
                <mxCell id="30" value="&lt;b&gt;Mis certificaciones&lt;/b&gt;" style="ellipse;whiteSpace=wrap;html=1;" vertex="1" parent="1">
                    <mxGeometry x="350" y="585" width="100" height="80" as="geometry"/>
                </mxCell>
                <mxCell id="31" value="&lt;b&gt;Mi progreso&lt;/b&gt;" style="ellipse;whiteSpace=wrap;html=1;" vertex="1" parent="1">
                    <mxGeometry x="414" y="510" width="80" height="60" as="geometry"/>
                </mxCell>
                <mxCell id="32" value="&lt;b&gt;Mis cursos&lt;/b&gt;" style="ellipse;whiteSpace=wrap;html=1;" vertex="1" parent="1">
                    <mxGeometry x="412" y="430" width="76" height="65" as="geometry"/>
                </mxCell>
                <mxCell id="33" value="Incluir" style="endArrow=block;dashed=1;endFill=0;endSize=12;html=1;entryX=0;entryY=0.5;entryDx=0;entryDy=0;exitX=1;exitY=0.5;exitDx=0;exitDy=0;" edge="1" parent="1" source="9" target="32">
                    <mxGeometry width="160" relative="1" as="geometry">
                        <mxPoint x="289" y="484" as="sourcePoint"/>
                        <mxPoint x="370" y="510" as="targetPoint"/>
                        <Array as="points"/>
                    </mxGeometry>
                </mxCell>
                <mxCell id="34" value="Incluir" style="endArrow=block;dashed=1;endFill=0;endSize=12;html=1;entryX=0;entryY=0;entryDx=0;entryDy=0;exitX=1;exitY=1;exitDx=0;exitDy=0;" edge="1" parent="1" source="9" target="31">
                    <mxGeometry x="0.0391" y="-7" width="160" relative="1" as="geometry">
                        <mxPoint x="240" y="630" as="sourcePoint"/>
                        <mxPoint x="321" y="656" as="targetPoint"/>
                        <mxPoint as="offset"/>
                    </mxGeometry>
                </mxCell>
                <mxCell id="35" value="Incluir" style="endArrow=block;dashed=1;endFill=0;endSize=12;html=1;exitX=0.6;exitY=1.063;exitDx=0;exitDy=0;exitPerimeter=0;" edge="1" parent="1" source="9" target="30">
                    <mxGeometry x="0.0391" y="-7" width="160" relative="1" as="geometry">
                        <mxPoint x="200" y="640" as="sourcePoint"/>
                        <mxPoint x="304.64466094067257" y="721.7157287525379" as="targetPoint"/>
                        <mxPoint as="offset"/>
                    </mxGeometry>
                </mxCell>
            </root>
        </mxGraphModel>
    </diagram>
</mxfile>